<?xml version="1.0" encoding="utf-8"?>
<!-- Generator: Adobe Illustrator 24.3.2, SVG Export Plug-In . SVG Version: 6.00 Build 0)  -->
<svg version="1.1" id="Layer_1" xmlns="http://www.w3.org/2000/svg" xmlns:xlink="http://www.w3.org/1999/xlink" x="0px" y="0px"
	 viewBox="0 0 1200 516" style="enable-background:new 0 0 1200 516;" xml:space="preserve">
<style type="text/css">
	.st0{fill:#FFFFFF;}
	.st1{fill:#BFD730;}
</style>
<g>
	<path class="st0" d="M1113.02,160.81c0,12.75-10.25,22.85-23.23,22.85c-12.96,0-23.31-10.09-23.31-22.85
		c0-12.68,10.35-22.62,23.48-22.62C1102.77,138.19,1113.02,148.13,1113.02,160.81 M1072.27,160.81c0,10.12,7.56,18.13,17.7,18.13
		c9.79,0.08,17.21-8.02,17.21-18.01c0-10.07-7.42-18.16-17.52-18.16C1079.82,142.78,1072.27,150.87,1072.27,160.81 M1086.2,172.59
		h-5.23v-22.64c2.07-0.3,4.95-0.71,8.68-0.71c4.27,0,6.22,0.71,7.74,1.8c1.35,0.97,2.36,2.63,2.36,4.86c0,2.74-2.1,4.51-4.69,5.35
		v0.28c2.17,0.69,3.3,2.46,3.97,5.56c0.72,3.4,1.25,4.69,1.69,5.5h-5.54c-0.69-0.82-1.12-2.76-1.79-5.5
		c-0.41-2.41-1.8-3.49-4.74-3.49h-2.46V172.59z M1086.33,159.91h2.51c2.92,0,5.23-1.03,5.23-3.36c0-2.1-1.49-3.43-4.82-3.43
		c-1.38,0-2.36,0.08-2.91,0.26V159.91z"/>
	<g>
		<path class="st1" d="M889.41,265.59l-0.02-0.08L889.41,265.59L889.41,265.59L889.41,265.59z M890.43,263.96
			c-1.43,0-2.2,0.69-2.56,1.28c-0.46,0.66-0.77,1.59-0.94,2.79c-0.64,3.79-1.56,6.84-2.87,9.02c-1.23,2.07-2.97,3.64-5.25,4.66
			c-1.56,0.64-3.38,1.2-5.64,1.51c-2.15,0.33-4.35,0.59-6.5,0.62c-2.18,0.1-4.18,0.1-5.89,0.1c0,0,0,0-0.05,0h-1.03
			c-4.35,0-8.04-0.21-10.92-0.67c-2.92-0.41-5.12-1.18-6.56-2.3c-1.38-0.97-2.36-2.38-2.94-4.38c-0.59-2.02-0.9-4.63-0.98-7.99
			c-0.02-1.18-0.08-2.77-0.08-4.74c0-1.92,0-4.17,0-6.56c0-2.43,0-4.87,0-7.27c0.05-2.44,0.05-4.72,0.05-6.79
			c0.02-2.18,0.02-3.89,0.02-5.33v-15.6c0-0.25,0.03-0.51,0.03-0.64c1.03,0,2.38,0,4.2,0.05c1.77,0,3.69,0.05,5.79,0.05l10.45,0.13
			c1.28,0.1,2.48,0.1,3.53,0.15c1.79,0.02,3.02,0.1,3.79,0.18c2.31,0.28,4.12,0.71,5.54,1.38c1.28,0.62,2.3,1.38,3.02,2.28
			c0.64,0.84,1.13,1.87,1.41,3.05c0.23,1.02,0.41,2.23,0.54,3.56c0,0.87,0.1,1.56,0.1,2.22l0.11,1.05c0,0.79,0.23,1.44,0.66,2.07
			c0.39,0.46,1.08,1.05,2.51,1.05c0.02,0,0.02,0,0.02,0c1.05-0.05,1.78-0.49,2.3-1.23c0.36-0.59,0.57-1.25,0.67-2.02
			c0.08-0.69,0.08-1.31,0.08-1.85l0.05-2.07c0.05-0.97,0.11-2.2,0.21-3.53c0.08-1.33,0.15-2.69,0.26-4.05
			c0.05-1.31,0.18-2.43,0.28-3.56c0.18-3,0.38-5.76,0.69-8.17c0.23-1.82,0.41-3.12,0.59-4.05c0.18-1.07,0.3-1.92,0.3-2.28
			c0-0.95-0.28-1.69-0.84-2.25c-1.08-0.98-2.95-0.9-4.23,0.33c-0.51,0.51-1.1,1.2-1.82,2.02c-0.71,0.77-1.72,1.33-2.97,1.69
			c-1.49,0.35-3.38,0.64-5.61,0.81c-0.99,0.08-2.51,0.1-4.53,0.21h-1.97c-1.61,0.11-3.36,0.11-5.3,0.11
			c-2.69,0.05-5.38,0.05-8.09,0.05c-2.67,0.05-5.07,0.05-7.17,0.05h-4.56c-0.03-0.25-0.03-0.51-0.03-0.87V158.2
			c0-0.38,0.03-0.59,0.05-0.64c0.84,0,2.2,0,4.12,0c1.92,0.05,4.05,0.1,6.51,0.18c2.4,0,4.86,0.08,7.27,0.16
			c2.38,0.05,4.51,0.08,6.35,0.2c1.79,0.11,2.97,0.11,3.71,0.23c3.12,0.39,5.55,0.9,7.2,1.51c1.54,0.56,2.69,1.2,3.36,1.97
			c0.74,0.82,1.25,1.74,1.61,2.79c0.31,0.71,0.54,1.56,0.72,2.41c0.1,0.79,0.23,1.59,0.26,2.38c0.1,0.74,0.1,1.38,0.1,1.85
			c0,1.08,0.15,2.02,0.54,2.71c0.53,0.95,1.41,1.39,2.66,1.39l0,0c1.13-0.03,1.97-0.49,2.54-1.39c0.28-0.49,0.61-1.1,0.69-1.92
			c0.13-0.62,0.18-1.61,0.33-2.87c0.08-1.26,0.18-2.51,0.26-3.95l0.1-1.59c0.05-0.77,0.08-1.54,0.15-2.25l0.15-2.51
			c0.21-2.72,0.41-5.1,0.69-7.3c0.23-1.46,0.44-2.72,0.59-3.51c0.23-1,0.3-1.66,0.3-2.13c0-0.79-0.1-1.41-0.36-1.87
			c-0.41-0.85-1.18-1.23-2.25-1.23l0,0c-0.66,0-1.31,0.13-1.95,0.33c-0.46,0.21-0.87,0.3-1.43,0.46c-0.81,0.18-1.89,0.39-3.28,0.59
			c-1.48,0.18-3.18,0.31-4.97,0.56c-0.64,0-2.15,0.05-4.51,0.05c-2.33,0.08-5.17,0.08-8.55,0.08c-3.38,0.03-6.92,0.03-10.66,0.03
			h-25.72c-1.41,0-3.18,0-5.3-0.1c-1.54-0.05-3.22-0.13-4.99-0.18l-2.2-0.13c-2.51,0-5.07,0-7.81-0.08
			c-2.79-0.05-5.48-0.05-8.23-0.05c-1.74,0-2.92,0.08-3.76,0.44c-1.21,0.43-1.92,1.41-1.92,2.61s0.62,2.15,1.72,2.72
			c1.69,0.64,4.58,0.38,7.2,0.59c1.64,0.13,2.61,0.28,3.23,0.43c2,0.38,3.51,1,4.48,1.77c1.03,0.82,1.69,1.82,2.13,3
			c0.46,1.49,0.77,3.28,0.85,5.25l0.25,5.56c0.02,1.02,0.08,2.1,0.08,3.28l0.05,7.15c0,2.82,0,6.45,0,10.61v50.12
			c0,6.12,0,11.83,0,17.11c-0.05,5.35-0.15,10.11-0.26,14.34c-0.15,4.28-0.41,7.68-0.69,10.4c-0.23,1.89-0.54,3.56-0.95,5.04
			c-0.33,1.38-0.84,2.48-1.48,3.38c-0.51,0.71-1.28,1.1-2.41,1.35c-0.8,0.26-1.75,0.49-2.87,0.67c-1.18,0.13-2.51,0.23-3.84,0.23
			c-1.43,0-2.46,0.21-3.18,0.62c-0.87,0.52-1.33,1.34-1.33,2.31c0,1.22,0.67,2.23,1.82,2.77c2.02,0.94,6.04,0.58,10.12,0.4
			c2.43-0.05,4.76-0.15,7.06-0.21l1.9-0.13c1.69-0.02,3.28-0.07,4.72-0.13c1.99-0.08,3.53-0.15,4.63-0.15c2.92,0,6.02,0.08,9.3,0.15
			c3.28,0.11,7.01,0.26,11.21,0.41c4.25,0.23,9.17,0.39,14.78,0.59c5.96,0.15,12.52,0.25,19.51,0.25h1.23c1.95,0,3.56-0.1,4.74-0.21
			c1.72-0.25,3.08-0.79,3.97-1.72c0.9-0.9,1.59-2.3,2.04-4.3c0.28-0.9,0.54-2.36,0.87-4.48c0.28-2.05,0.54-4.12,0.83-6.4
			c0.28-2.3,0.5-4.43,0.63-6.48c0.21-2.04,0.31-3.69,0.31-4.89c0.02-1.15-0.05-2.1-0.21-2.84
			C892.79,264.75,891.84,263.98,890.43,263.96L890.43,263.96z"/>
		<path class="st1" d="M744.43,290.8c-0.66-0.23-1.51-0.36-2.71-0.36l0,0h-0.46c-1.2,0-2.64-0.1-4.3-0.3
			c-1.9-0.18-4.25-0.74-7.12-1.59c-1.64-0.49-3-1.38-4.05-2.71c-1.1-1.41-2.05-3.43-2.71-6.02c-0.82-2.89-1.46-6.38-1.95-10.17
			L703.1,147.26c-0.31-2.3-0.82-3.94-1.51-5.07c-1.05-1.82-2.43-2.2-3.38-2.2c-1.25,0-2.43,0.61-3.3,1.64
			c-0.79,0.87-1.49,2.18-2.26,3.92l-52.63,110.5L587.16,146.8c-0.97-1.84-1.71-3.1-2.28-3.92c-0.72-1.08-1.37-1.85-2.01-2.18
			c-0.68-0.49-1.4-0.71-2.23-0.71c-0.91,0.05-2.2,0.33-3.19,1.95c-0.69,0.95-1.2,2.41-1.55,4.35L556.32,275.4
			c-0.28,2.07-0.71,4.23-1.31,6.61c-0.51,2.1-1.28,3.92-2.23,5.38c-0.93,1.31-2.13,2.2-3.53,2.56c-1.3,0.18-2.4,0.39-3.35,0.46
			c-0.77,0.02-1.55,0.02-2.24,0.02c-1.25,0-2.24,0.21-2.84,0.44c-1.09,0.46-1.77,1.22-1.77,2.38c0.09,1.87,1.2,2.67,1.85,2.92
			c0.8,0.3,1.73,0.53,3.02,0.53c1.66,0.11,3.38-0.05,5.3-0.08l5.56-0.25c1.84-0.05,3.51-0.13,5.07-0.18
			c1.54-0.02,2.77-0.07,3.73-0.07c1.18,0,2.88,0.05,5.03,0.12c1.5,0.08,3.11,0.13,4.85,0.23l2.55,0.05c2.73,0.13,5.5,0.18,8.27,0.18
			c0.04,0,0.04,0,0.04,0h0.42c1.41,0,2.61-0.18,3.57-0.51c1.35-0.46,2.13-1.56,2.13-3.1c-0.08-1.03-0.73-1.87-1.73-2.17
			c-1.37-0.59-3.24-0.41-6.03-0.67c-1.31-0.13-2.88-0.44-4.58-0.77c-1.46-0.26-2.7-0.9-3.61-1.72c-0.84-0.74-1.25-1.82-1.29-3.3
			c0-1.49,0.07-2.97,0.16-4.35c0.11-1.49,0.24-3.08,0.43-4.79l9.89-75.53l3.27,7c1.23,2.56,2.42,5.12,3.62,7.68l6.35,13.42
			c1.49,3.23,2.79,6.02,3.87,8.25l0.24,0.62c0.91,1.92,1.54,3.3,1.88,4.15c0.44,0.95,1.15,2.54,2.21,4.64l1.28,2.59
			c0.77,1.54,1.58,3.12,2.46,4.95c1.43,2.79,2.95,5.81,4.57,9.04l1.95,3.72c0.97,1.86,1.92,3.71,2.85,5.61l2.07,3.97
			c0.77,1.56,1.54,3,2.25,4.36c1.34,2.53,2.38,4.56,3.18,6.12c1.56,3.02,2.92,5.46,4.05,7.28c1.36,2.25,2.61,3.33,4.15,3.33
			c0.92,0,1.78-0.35,2.59-1.18c0.64-0.67,1.35-1.79,2.3-3.59c0.84-1.59,2.07-3.94,3.56-7.07l41.85-87.16l11.45,84.01
			c0.44,3.15,0.39,4.92,0.26,5.79c-0.18,1.05-0.38,1.31-0.46,1.31c-0.87,0.41-1.49,0.79-1.97,1.2c-0.67,0.62-1.03,1.31-1,2.13
			c-0.08,0.67,0.13,1.97,1.97,2.71c0.97,0.39,2.59,0.67,5,0.9c1.35,0.11,3.15,0.21,5.43,0.31c2.23,0.08,4.74,0.15,7.45,0.23
			l23.29,0.59c1.1,0,2.07,0,2.79,0.05h1.34c1.54,0,2.92-0.23,4.04-0.58c2.05-0.67,2.41-2.11,2.46-2.92
			C746.28,292.08,745.54,291.11,744.43,290.8L744.43,290.8z"/>
		<path class="st1" d="M316.01,220.31c-0.78-0.38-1.78-0.54-3.08-0.54h-0.37c-2.24,0-4.78,0.05-7.58,0.16l-8.34,0.31
			c-2.74,0.1-5.15,0.15-7.25,0.15c-2,0-4.6-0.05-7.75-0.15c-1.85-0.11-3.77-0.13-5.74-0.18l-4.52-0.13
			c-3.62-0.1-7.17-0.16-10.64-0.16c0,0-0.01,0-0.03,0h-0.43c-1.38,0-2.41,0.16-3.16,0.54c-1.23,0.41-1.93,1.46-1.93,2.89
			c0.08,1.05,0.64,1.92,1.56,2.36c1.51,0.74,4.39,0.41,6.99,0.62c1.61,0.1,2.6,0.28,3.19,0.44c2.03,0.38,3.49,1.02,4.56,1.77
			c1,0.77,1.73,1.77,2.14,2.97c0.47,1.51,0.73,3.25,0.77,5.22c0.1,2.94,0.14,6.35,0.14,10.22c0.06,3.79,0.06,8.2,0.06,13.11v18.67
			c0.03,1.49-0.18,2.74-0.65,3.82c-0.4,0.92-1.19,1.72-2.33,2.25c-1.48,0.67-3.1,1.1-4.99,1.44c-1.88,0.28-3.8,0.54-5.72,0.57
			c-1.97,0-3.79,0-5.53,0h-0.03c-8.21,0-15.87-1.18-22.76-3.54c-6.93-2.36-13.24-5.79-18.74-10.09c-5.48-4.3-10.2-9.5-14.09-15.57
			c-3.86-5.99-6.83-12.7-8.87-20.16c-2.05-7.33-3.11-15.29-3.11-23.72c0.02-7.99,0.75-15.06,2.2-20.98
			c1.47-5.97,3.55-11.22,6.17-15.55c2.62-4.35,5.79-8.02,9.35-10.88c3.41-2.84,6.83-5.05,10.17-6.64c3.36-1.59,6.73-2.84,10.02-3.59
			c3.21-0.77,6.39-1.25,9.49-1.49c2.74-0.18,5.25-0.31,7.65-0.31h1.02c5.52,0.08,10.66,0.54,15.24,1.54
			c4.82,0.95,8.92,2.2,12.47,3.74c3.62,1.49,6.76,3.13,9.43,4.87c2.61,1.66,4.63,3.35,6.02,4.87c1.63,1.77,2.86,3.53,3.7,5.38
			c0.87,1.87,1.51,3.66,1.87,5.38c0.38,1.92,0.68,3.48,0.83,4.94c0.11,1.03,0.38,1.87,0.72,2.38c0.5,0.87,1.42,1.38,2.7,1.38
			c1.23,0,2.2-0.59,2.74-1.64c0.45-0.82,0.67-2.05,0.67-3.89c0-6.4,0.08-11.43,0.23-15.11c0.11-4.08,0.29-7.17,0.46-9.45l0.1-1.25
			c0.11-1.69,0.24-3,0.39-3.97c0.12-1.26,0.21-2.13,0.21-2.61c0.03-1.33-0.45-2.13-0.85-2.56c-0.6-0.69-1.61-1.08-3.24-1.18
			c-1.47-0.16-3.15-0.28-5.03-0.46c-1.87-0.28-3.7-0.51-5.55-0.84c-1.81-0.33-3.46-0.62-4.86-0.87c-1.05-0.18-2.8-0.51-5.27-0.84
			c-2.45-0.36-5.38-0.72-8.71-1.05c-3.32-0.39-6.85-0.69-10.51-0.92c-3.73-0.23-7.35-0.41-10.77-0.41h-1.65
			c-5.03,0-10.24,0.28-15.46,0.87c-5.75,0.54-11.83,1.79-18.04,3.64c-6.09,1.89-12.42,4.74-18.8,8.58
			c-4.61,2.74-9.07,6.28-13.24,10.48c-4.15,4.1-7.92,8.99-11.23,14.57c-3.24,5.5-5.85,11.76-7.75,18.52
			c-1.88,6.81-2.86,14.34-2.89,22.36c0.08,10.96,1.74,20.93,4.94,29.48c3.27,8.6,7.84,16.14,13.65,22.33
			c5.83,6.25,12.69,11.43,20.46,15.37c7.86,4.07,16.37,7,25.34,8.89c8.94,1.9,18.5,2.82,28.43,2.82c4.2,0,8.24-0.1,12.28-0.46
			c4.29-0.28,8.45-0.79,12.75-1.46c4.16-0.66,8.32-1.54,12.32-2.79c3.93-1.08,7.61-2.59,11-4.33c0.9-0.46,1.61-1.03,2.1-1.56
			c0.56-0.66,0.91-1.61,1.03-2.66c0.09-0.95,0.14-2.26,0.14-4.05v-21.82c0-4.94,0-9.42,0.06-13.32c0-3.95,0.04-7.45,0.11-10.42
			c0.09-3.18,0.63-5.53,1.67-7.15c0.95-1.54,2.53-2.43,4.75-2.82c1.15-0.21,2.11-0.33,2.91-0.44c1.84-0.23,3.59-0.05,4.61-0.62
			c0.67-0.33,1.47-1,1.53-2.41C317.84,221.77,317.15,220.72,316.01,220.31L316.01,220.31z"/>
		<path class="st1" d="M1040.46,241.98c-1.23-4.31-3.18-8.58-5.77-12.55c-2.59-4.02-6.05-8.17-10.25-12.29
			c-4.2-4.17-9.32-8.53-15.21-13.09l-5.54-4.17c-5.33-4.05-9.57-7.66-12.6-10.81c-2.92-3-4.99-5.87-6.2-8.5
			c-1.12-2.64-1.69-5.35-1.69-8.09c0.05-3.79,0.92-7.15,2.66-9.88c1.74-2.87,4.22-5.02,7.58-6.69c3.28-1.61,7.32-2.51,11.99-2.51
			c4.1,0.07,7.53,0.51,10.2,1.58c2.66,0.97,4.82,2.18,6.45,3.61c1.74,1.43,2.97,2.74,3.9,4c1.31,1.66,2.3,3.23,3.02,4.92
			c0.71,1.79,1.18,3.28,1.48,4.53c0.21,1.08,0.39,2.2,0.36,2.82c0,1.33,0.21,2.46,0.62,3.25c0.56,1.05,1.53,1.59,2.77,1.59
			c1.34,0,2.36-0.82,2.89-2.23c0.39-1.05,0.54-2.69,0.54-5.04c0-5.07,0.11-9.22,0.21-12.4c0.15-3.2,0.26-5.61,0.41-7.43
			c0.13-1.72,0.21-3.05,0.21-3.94c0-1.46-0.71-2.2-1.25-2.59c-0.62-0.46-1.46-0.8-2.48-1.1c-2.51-0.69-5.95-1.44-10.4-2.23
			c-4.35-0.72-9.66-1.1-16.34-1.18c-6.99,0.08-13.47,1-19.16,2.89c-5.74,1.84-10.76,4.56-14.85,8.02c-4.2,3.48-7.38,7.53-9.63,12.27
			c-2.23,4.71-3.38,9.99-3.43,15.62c0,5.43,0.95,10.78,2.87,15.98c1.95,5.12,5.12,10.4,9.48,15.57
			c4.38,5.22,10.29,10.78,17.51,16.41l9.09,7.15c3.97,3.09,7.25,6.01,9.81,8.76c2.4,2.63,4.32,5.2,5.68,7.73
			c1.36,2.51,2.23,4.92,2.67,7.15c0.51,2.23,0.77,4.58,0.71,6.94c0,2.56-0.51,5.02-1.56,7.48c-1,2.46-2.53,4.74-4.61,6.76
			c-2.07,2.1-4.69,3.82-7.81,5.07c-3.2,1.28-6.97,1.92-11.53,1.92c-3.79,0-7.51-0.64-11.06-1.82c-3.56-1.23-6.74-3.33-9.43-6.09
			c-2.72-2.79-4.82-6.48-6.22-11.14c-0.54-1.76-0.93-3.48-1.21-5.17c-0.36-1.92-0.51-3.38-0.51-4.48c0.02-0.97-0.11-1.95-0.41-2.72
			c-0.41-1.25-1.44-1.97-2.97-2.05c-0.77,0.08-2.15,0.41-2.92,2.33c-0.36,1.05-0.62,2.36-0.71,4.02c-0.05,0.64-0.1,1.46-0.18,2.61
			l-0.12,2.51c-0.11,1.46-0.21,3.2-0.29,4.97c-0.1,2.46-0.2,4.99-0.28,7.76c-0.09,2.74-0.15,5.51-0.15,8.23
			c0,1.71,0.11,2.85,0.33,3.71c0.23,1.1,0.77,1.97,1.51,2.64c0.64,0.62,1.54,1.15,2.71,1.59c4.41,2,9.02,3.35,13.68,4.15
			c4.61,0.77,9.68,1.12,15.13,1.12h0.64c3.59,0,7.2-0.21,10.81-0.71c3.71-0.46,7.38-1.36,10.86-2.54c3.63-1.23,7.17-2.95,10.55-5.1
			c4.89-3.2,8.76-6.81,11.5-10.86c2.79-3.84,4.79-8.07,6.02-12.3c1.12-4.3,1.74-8.47,1.69-12.4
			C1042.27,250.84,1041.66,246.36,1040.46,241.98L1040.46,241.98z"/>
		<path class="st1" d="M404.22,232.45l17.89-47.82l17.46,47.82H404.22L404.22,232.45z M509.37,290.88
			c-0.58-0.31-1.26-0.44-2.33-0.44c-1.24,0-2.5-0.02-3.87-0.15c-1.49-0.08-2.93-0.28-4.2-0.62c-0.91-0.18-1.98-0.64-3.13-1.2
			c-1.12-0.62-2.36-1.64-3.73-3c-1.36-1.46-2.86-3.53-4.44-6.12c-1.66-2.77-3.42-6.33-5.23-10.56c-1.58-3.76-3.42-8.21-5.53-13.37
			c-2.1-5.15-4.39-10.68-6.79-16.75l-1.03-2.54c-2.14-5.2-4.29-10.58-6.49-16.09l-9.96-25.02c-1.72-4.23-3.4-8.4-5.01-12.45
			l-6.39-16.06c-1.91-4.81-3.56-8.86-4.92-12.22l-0.79-1.92c-0.96-2.41-1.69-4.15-2.18-5.2c-1.01-2.36-1.93-4.12-2.71-5.22
			c-2.01-2.62-5.17-2.72-7.19,0.46c-0.84,1.23-1.79,3.18-3.08,6.38l-49.7,124.28c-1.32,3.43-2.62,6.19-4,8.63
			c-1.36,2.41-2.98,4.25-4.86,5.68c-1.85,1.46-4.15,2.28-6.88,2.69c-0.81,0.13-1.8,0.18-2.96,0.26c-2.51,0.23-4.47,0-5.47,0.69
			c-0.48,0.31-1.27,0.9-1.27,2.33c0,1.33,0.6,2.33,1.72,2.82c0.77,0.36,1.88,0.53,3.39,0.53c2.64,0,5.16-0.05,7.7-0.08l7.07-0.25
			c2.19-0.05,4.02-0.13,5.51-0.18c1.49-0.02,2.54-0.07,3.07-0.07c2.06,0,4.3,0.05,6.72,0.12l7.34,0.28c2.5,0.13,4.78,0.18,6.94,0.18
			c1.28,0,2.28-0.18,3.11-0.53c1.01-0.54,1.59-1.54,1.59-2.67c0.08-1.59-0.77-2.17-1.23-2.48c-0.67-0.39-1.59-0.59-3.09-0.59h-2.96
			c-3.3-0.02-4.74-0.77-5.34-1.25c-0.9-0.92-1.31-2.02-1.26-3.53c0-1.08,0.27-2.67,0.73-4.76c0.51-2.13,1.22-4.43,2.15-6.81
			l10.73-28.38c0.16-0.54,0.28-0.62,0.51-0.69h44.14c0.33,0,0.43,0.1,0.48,0.1c0.04,0.05,0.14,0.21,0.24,0.44l15.84,41.96
			c0.42,1.1,0.25,1.69,0.06,2c-0.37,0.64-0.78,0.77-0.73,0.77c-1.24,0.15-2.08,0.38-2.63,0.71c-0.63,0.36-1.36,1.1-1.36,2.41
			c0.05,0.87,0.46,2.2,2.78,2.61c1.23,0.13,2.73,0.21,4.47,0.33c5.33,0.15,10.39,0.21,15.15,0.21c4.8,0.13,9.14,0.13,12.95,0.13
			c3.8,0.05,6.94,0.05,9.36,0.05c2.43,0,4.35-0.05,5.71-0.18c1.54-0.05,2.6-0.36,3.36-0.8c1.3-0.77,1.39-1.85,1.34-2.38
			C510.84,292.15,510.33,291.23,509.37,290.88L509.37,290.88z"/>
		<path class="st0" d="M396.92,331.42c-0.24,0-0.49,0.08-0.87,0.18c-0.19,0.05-0.5,0.11-0.88,0.15c-0.38,0.05-0.9,0.11-1.45,0.18
			c-0.59,0.08-1.29,0.08-2.14,0.08h-20.17c-0.23,0-0.52,0-1.01,0c-0.37-0.08-0.77-0.08-1.51-0.15c-0.55-0.05-1.09-0.11-1.6-0.15
			c-0.5,0-0.78-0.11-0.91-0.16c-0.24-0.05-0.42-0.12-0.55-0.15c-0.35-0.2-0.64-0.3-1.2-0.3c-0.43,0.08-1.01,0.51-1.2,0.84
			c-0.11,0.18-0.23,0.44-0.28,0.62c-0.06,0.23-0.13,0.33-0.18,0.51c-0.04,0.13-0.1,0.39-0.18,0.74l-0.95,4.31
			c-0.08,0.43-0.12,0.79-0.12,0.97c0,0.35,0.08,0.69,0.29,1.03c0.3,0.49,0.77,0.74,1.32,0.74c0.32,0,0.94-0.21,1.18-0.43
			c0.25-0.18,0.43-0.56,0.6-0.9c0.06-0.18,0.13-0.33,0.25-0.56c0.11-0.23,0.28-0.49,0.54-0.9c0.16-0.28,0.35-0.44,0.6-0.56
			c0.22-0.16,0.59-0.28,1.27-0.41c0.65-0.11,1.5-0.16,2.52-0.16l6.62-0.05v26.17c-0.04,1.49-0.05,2.82-0.1,4
			c-0.02,1.08-0.06,1.97-0.15,2.74c-0.09,0.43-0.16,0.87-0.23,1.2c-0.08,0.36-0.18,0.52-0.32,0.62c-0.21,0-0.45,0.08-0.67,0.16
			c-0.99,0.1-1.65,0.23-1.86,0.48c-0.3,0.18-0.56,0.8-0.56,1.21c0,0.69,0.37,1.25,0.96,1.51c0.9,0.46,1.66,0.28,2.78,0.23l3.75-0.12
			l4.33,0.12c0.76,0,1.54,0,2.29,0c0.34,0,0.87,0,1.27-0.28c0.57-0.28,0.95-0.82,0.95-1.46c0-0.41-0.28-1.03-0.58-1.28
			c-0.29-0.23-0.84-0.39-1.75-0.41l-1.71-0.21c-0.33-0.05-0.47-0.16-0.51-0.16c-0.11-0.1-0.18-0.33-0.23-0.43
			c-0.1-0.3-0.16-0.74-0.19-1.18c-0.11-0.77-0.16-1.66-0.18-2.74c-0.04-1.18-0.08-2.51-0.09-4v-26.17l5.41,0.05
			c1.2,0.05,2.23,0.11,2.96,0.29c0.74,0.1,1.25,0.28,1.65,0.46c0.25,0.16,0.44,0.39,0.53,0.44c0.1,0.15,0.15,0.36,0.18,0.59
			l0.04,0.59c0.06,0.56,0.14,0.82,0.28,1.18c0.24,0.46,0.98,0.95,1.48,0.95c0.49,0,1.17-0.44,1.41-0.82
			c0.23-0.31,0.31-0.74,0.31-1.23l0.16-4.36c0.03-0.59,0.03-1.12,0.03-1.51c0.01-0.26,0-0.52-0.08-0.72
			C398.34,332.09,397.54,331.42,396.92,331.42L396.92,331.42z"/>
		<path class="st0" d="M469.58,371.77l-1.7-0.21c-0.33-0.05-0.46-0.05-0.47-0.16c-0.11-0.1-0.21-0.2-0.24-0.43
			c-0.1-0.3-0.19-0.74-0.22-1.18c-0.09-0.77-0.14-1.66-0.17-2.74c-0.06-1.18-0.09-2.51-0.1-4v-18.49l0.11-7.35
			c0.04-0.9,0.19-1.33,0.31-1.51c0.09-0.16,0.36-0.23,0.67-0.31l0.63-0.13c0.61-0.05,1.11-0.1,1.35-0.26
			c0.4-0.26,0.82-0.94,0.82-1.41c0-0.62-0.36-1.17-1.02-1.54c-0.59-0.31-1.46-0.26-2.66-0.21l-3.17,0.15c-0.35,0-0.54,0-0.64,0
			l-4.1-0.15c-1.24-0.05-2.29-0.21-3.28,0.23c-0.56,0.34-0.9,0.9-0.9,1.66c0.05,0.46,0.33,0.96,0.73,1.15
			c0.24,0.18,0.78,0.36,1.02,0.36c0.18,0,0.33,0,0.56,0c0.21,0,0.38,0.03,0.58,0.03c0.03,0,0.44,0.1,0.44,0.1
			c0.51,0.11,0.74,0.26,0.84,0.31c0.07,0.05,0.16,0.18,0.23,0.3c0.06,0.23,0.15,0.67,0.21,1.25c0,0.33,0.01,0.62,0.01,1
			c0.03,0.33,0.04,0.87,0.04,1.31l0.03,2c0,0.79,0,1.74,0,2.99v4.21l-20.8,0.12v-4.33c0-1.25,0-2.2,0-2.99l0.1-4.35
			c0.05-0.9,0.22-1.33,0.32-1.51c0.07-0.16,0.28-0.23,0.67-0.31l0.64-0.13c0.72-0.1,1.24-0.18,1.32-0.26
			c0.42-0.26,0.83-0.94,0.83-1.41c0-0.62-0.33-1.17-1.02-1.54c-0.57-0.31-1.46-0.26-2.68-0.21l-3.79,0.15l-4.12-0.15
			c-1.25-0.05-2.31-0.21-3.25,0.23c-0.56,0.34-0.89,0.9-0.88,1.66c0.02,0.46,0.29,0.96,0.73,1.15c0.22,0.18,0.78,0.36,1.01,0.36
			c0.18,0,0.33,0,0.56,0c0.21,0,0.41,0.03,0.62,0.03c0.15,0,0.25,0.1,0.41,0.1c0.47,0.11,0.72,0.21,0.83,0.31
			c0.08,0.05,0.14,0.18,0.22,0.3c0.09,0.23,0.16,0.67,0.19,1.25l0.11,7.3l-0.01,18.49c0,1.49-0.06,2.82-0.08,4
			c-0.01,1.08-0.09,1.97-0.16,2.74c-0.06,0.43-0.14,0.87-0.22,1.2c-0.1,0.36-0.21,0.52-0.32,0.62c-0.23,0-0.47,0.08-0.69,0.16
			c-0.96,0.1-1.63,0.23-1.84,0.41c-0.28,0.25-0.54,0.87-0.54,1.28c0,0.69,0.36,1.25,0.94,1.51c0.89,0.46,1.66,0.28,2.78,0.23
			l3.74-0.12l4.34,0.12c0.79,0,1.55,0,2.31,0c0.32,0,0.86,0,1.25-0.28c0.6-0.28,0.92-0.82,0.92-1.46c0-0.41-0.25-1.03-0.55-1.28
			c-0.28-0.23-0.82-0.39-1.73-0.41l-1.73-0.21c-0.26-0.05-0.42-0.05-0.5-0.16c-0.09-0.1-0.18-0.2-0.22-0.43
			c-0.13-0.3-0.19-0.74-0.23-1.18c-0.08-0.77-0.13-1.66-0.17-2.74c-0.02-1.18-0.09-2.51-0.09-4c0-1.48,0-3.07,0-4.81v-4.61h20.8
			v4.61c0,1.74,0,3.33,0,4.81c-0.03,1.49-0.04,2.82-0.08,4c-0.04,1.08-0.1,1.97-0.18,2.74c-0.08,0.43-0.16,0.87-0.23,1.2
			c-0.1,0.36-0.19,0.52-0.32,0.62c-0.18,0-0.44,0.08-0.67,0.16c-0.93,0.1-1.6,0.23-1.83,0.48c-0.31,0.18-0.55,0.8-0.55,1.21
			c0,0.69,0.35,1.25,0.92,1.51c0.91,0.46,1.68,0.28,2.77,0.23l3.75-0.12l4.35,0.12c0.77,0,1.52,0,2.28,0c0.4,0,0.88,0,1.27-0.23
			c0.58-0.33,0.91-0.87,0.91-1.51c0-0.41-0.25-1.03-0.52-1.21C471.07,371.94,470.57,371.79,469.58,371.77L469.58,371.77z"/>
		<path class="st0" d="M617.09,356.7c-0.67-1.12-1.54-2.26-2.59-3.38c-1.05-1.12-2.39-2.28-4.04-3.59l-1.53-1.18
			c-1.24-1-2.29-1.89-3.12-2.64c-0.76-0.77-1.39-1.36-1.83-1.97c-0.41-0.64-0.7-1.12-0.86-1.66c-0.15-0.53-0.23-1.08-0.22-1.74
			c0-1.03,0.22-1.95,0.68-2.67c0.45-0.66,1.04-1.2,1.83-1.64c0.77-0.43,1.72-0.59,2.77-0.59c1.11,0,2.02,0.11,2.72,0.3
			c0.69,0.21,1.24,0.41,1.63,0.72c0.51,0.25,0.71,0.54,0.87,0.64c0.21,0.28,0.28,0.36,0.31,0.46c0.08,0.1,0.15,0.33,0.21,0.56
			c0.1,0.36,0.18,0.62,0.23,0.95c0.08,0.28,0.1,0.49,0.13,0.62c0,0.4,0.1,0.69,0.21,1.02c0.54,1.26,2.71,1.18,3.12-0.28
			c0.11-0.33,0.15-0.74,0.15-1.31c0-1.84,0.05-3.12,0.11-4.07l0.1-1.51c0.05-0.49-0.25-1.15-0.62-1.46
			c-0.59-0.54-1.18-0.36-1.79-0.49c-0.25,0-0.61-0.05-1.02-0.15c-0.72-0.15-1.51-0.33-2.4-0.46c-0.86-0.03-1.85-0.11-2.95-0.11
			c-2.47,0-4.65,0.46-6.5,1.34c-1.9,0.92-3.37,2.22-4.41,3.89c-1.05,1.66-1.56,3.59-1.58,5.78c-0.01,1,0.12,2.06,0.32,2.97
			c0.22,1.08,0.65,2.08,1.23,3.13c0.51,1,1.28,2.05,2.29,3.2c0.98,1.1,2.19,2.23,3.65,3.43l2.42,2c1.11,0.92,2.06,1.74,2.83,2.51
			c0.73,0.69,1.31,1.41,1.74,2.02c0.41,0.66,0.7,1.28,0.87,1.95c0.2,0.67,0.26,1.36,0.26,2.18c0,0.71-0.13,1.41-0.39,2.1
			c-0.26,0.63-0.63,1.3-1.14,1.86c-0.53,0.54-1.18,0.97-1.97,1.28c-1.38,0.62-3.4,0.77-5.2,0.25c-0.71-0.15-1.39-0.4-2-0.77
			c-0.59-0.35-1.06-0.77-1.47-1.33c-0.39-0.54-0.68-1.21-0.84-2c-0.05-0.33-0.12-0.62-0.13-0.9c-0.01-0.33-0.01-0.62-0.01-0.84
			c0-0.36-0.01-0.74-0.22-1.08c-0.24-0.46-0.97-0.82-1.5-0.82c-0.63,0-1.2,0.31-1.51,0.97c-0.14,0.28-0.21,0.62-0.23,1.08
			l-0.09,1.25c-0.08,0.54-0.1,1.23-0.13,2.03c-0.05,0.74-0.06,1.61-0.06,2.58c0,0.51,0.01,0.95,0.04,1.2
			c0.05,0.46,0.21,0.93,0.52,1.26c0.26,0.3,0.59,0.53,0.99,0.71c1.2,0.62,2.51,1,3.85,1.31c1.21,0.2,2.49,0.3,3.75,0.3h0.35
			c1.51,0,3.05-0.15,4.48-0.53c1.52-0.39,2.97-1.08,4.29-1.97c1.03-0.71,1.9-1.56,2.59-2.48c0.66-0.9,1.18-1.79,1.54-2.74
			c0.41-0.9,0.67-1.74,0.82-2.61c0.13-0.84,0.21-1.54,0.21-2.15c0-1.2-0.11-2.36-0.36-3.43C618.16,358.9,617.75,357.78,617.09,356.7
			L617.09,356.7z"/>
		<path class="st0" d="M527.67,365.26c-0.61,0-1.18,0.35-1.46,0.87c-0.14,0.26-0.24,0.54-0.35,1.03c-0.14,0.97-0.36,1.66-0.63,2.13
			c-0.23,0.33-0.55,0.59-0.99,0.74c-0.35,0.18-0.79,0.31-1.3,0.36c-0.59,0.1-1.14,0.12-1.72,0.12c-1.55,0.08-3.47,0.08-4.63-0.12
			c-0.74-0.16-1.11-0.31-1.25-0.39c-0.13-0.12-0.27-0.21-0.39-0.64c-0.14-0.46-0.25-1.15-0.27-1.97c0-0.23,0-0.56,0-1.1V354.5
			l3.62,0.11c0.65,0.05,1.24,0.05,1.78,0.08c0.52,0,0.91,0.06,1.19,0.06c0.65,0.04,1.01,0.22,1.09,0.28
			c0.29,0.15,0.35,0.21,0.37,0.28c0.09,0.1,0.16,0.21,0.19,0.36c0.07,0.28,0.11,0.54,0.13,0.71c0.03,0.23,0.03,0.46,0.03,0.69
			c0,0.41,0.13,0.8,0.29,1.08c0.3,0.48,0.85,0.76,1.5,0.76c0,0,0,0,0.04,0c0.46-0.05,1.17-0.51,1.36-0.95
			c0.16-0.25,0.21-0.51,0.23-0.79c0.03-0.2,0.03-0.41,0.03-0.64h-0.76c0-0.05-0.01-0.16-0.01-0.16l0.79-0.38
			c0-0.2,0.01-0.49,0.04-0.85l0.15-1.92c0.06-0.85,0.15-1.46,0.24-1.92c0.13-0.59,0.18-0.93,0.18-1.23c0-0.41-0.09-0.79-0.38-1.18
			c-0.25-0.33-0.83-0.56-1.22-0.56c-0.47,0-0.91,0.18-1.28,0.56c-0.11,0.1-0.28,0.28-0.44,0.49l0.64,0.69
			c-0.01,0-0.01,0.05-0.01,0.13l-0.97-0.59c-0.36,0.13-0.81,0.13-1.38,0.13c-0.19,0.05-0.52,0.05-0.91,0.05l-6.53,0.1v-13.21
			l5.28,0.05c0.44,0,0.74,0.05,0.92,0.05c1.08,0.11,1.64,0.26,1.92,0.36c0.45,0.18,0.57,0.3,0.57,0.3c0.13,0.05,0.21,0.18,0.24,0.28
			c0.05,0.15,0.12,0.33,0.14,0.46c0.04,0.18,0.05,0.41,0.06,0.62l0.03,0.41c0,0.46,0.1,0.84,0.23,1.1c0.32,0.54,0.97,0.82,1.69,0.93
			c0.47-0.03,1.12-0.56,1.34-1c0.05-0.12,0.14-0.38,0.19-0.71c0.05-0.18,0.08-0.43,0.09-0.82c0.05-0.36,0.08-0.71,0.09-1.1
			l0.12-1.64c0.06-0.69,0.15-1.25,0.23-1.54c0.13-0.51,0.19-0.92,0.21-1.18c0-0.26-0.03-0.56-0.13-0.81c-0.23-0.62-0.93-1.11-1.56-1
			c-0.37,0-0.68,0.12-0.93,0.28c-0.19,0.05-0.43,0.1-0.79,0.1c-0.37,0.05-0.79,0.13-1.25,0.13c-0.18,0-0.54,0.08-1.03,0.08h-11.19
			l-2.22-0.15c-0.62,0-1.27-0.05-1.93-0.05l0,0H505c-0.5,0-0.87,0.05-1.29,0.28c-0.57,0.34-0.88,0.9-0.88,1.66
			c0.04,0.46,0.32,0.96,0.73,1.15c0.24,0.18,0.76,0.36,1.03,0.36c0.15,0,0.32,0,0.54,0c0.23,0,0.39,0.03,0.59,0.03
			c0.04,0,0.43,0.1,0.45,0.1c0.49,0.11,0.71,0.26,0.86,0.31c0.05,0.05,0.16,0.18,0.17,0.3c0.1,0.23,0.21,0.67,0.23,1.21l0.06,4.35
			c0.03,0.79,0.03,1.74,0.03,2.99v13.68c0,1.74,0,3.33-0.03,4.81c0,1.49-0.03,2.82-0.05,4c-0.04,1.08-0.1,1.97-0.18,2.74
			c-0.06,0.43-0.14,0.87-0.23,1.2c-0.09,0.36-0.18,0.52-0.29,0.57c-0.22,0.05-0.49,0.12-0.68,0.21c-0.99,0.1-1.64,0.23-1.84,0.48
			c-0.31,0.18-0.56,0.8-0.56,1.21c0,0.69,0.37,1.25,0.95,1.51c0.4,0.23,0.83,0.23,1.25,0.23l0,0c0.42,0,0.96,0,1.55-0.05
			c0.51,0,1.05-0.07,1.61-0.07c0.56,0,1.01,0,1.42,0h0.67c0.4,0,0.92,0,1.57,0l6.43,0.23c1.54,0.05,3.28,0.05,5.29,0.05
			c0.03,0,0.33,0,0.35,0c0.61,0,1.07,0,1.44-0.05c0.68-0.05,1.23-0.33,1.65-0.77c0.32-0.36,0.59-0.9,0.79-1.59
			c0.05-0.26,0.1-0.62,0.18-1.05c0.07-0.38,0.15-0.81,0.2-1.46c0.09-0.41,0.11-0.77,0.16-1.15l0.15-1.15
			c0.03-0.39,0.03-0.61,0.03-0.64c0.01-0.33,0-0.59-0.06-0.93C529.1,365.82,528.5,365.31,527.67,365.26L527.67,365.26z"/>
		<path class="st0" d="M692.79,371.77l-1.71-0.21c-0.33-0.05-0.49-0.05-0.49-0.16c-0.08-0.1-0.21-0.2-0.26-0.43
			c-0.1-0.3-0.15-0.74-0.21-1.15c-0.11-0.79-0.15-1.69-0.18-2.77c-0.02-1.18-0.08-2.51-0.08-4v-18.49l0.11-7.35
			c0-0.9,0.21-1.33,0.3-1.51c0.08-0.16,0.28-0.23,0.62-0.31l0.69-0.13c0.59-0.05,1.05-0.05,1.36-0.26c0.41-0.26,0.82-0.94,0.82-1.41
			c0-0.62-0.36-1.17-1.05-1.54c-0.59-0.31-1.46-0.26-2.69-0.21l-3.09,0.15c-0.36,0-0.59,0-0.67,0l-4.12-0.15
			c-1.23-0.05-2.26-0.21-3.28,0.23c-0.53,0.34-0.87,0.9-0.87,1.59c0.05,0.54,0.33,1.03,0.71,1.23c0.23,0.18,0.77,0.36,1.08,0.36
			c0.1,0,0.26,0,0.52,0c0.2,0,0.4,0.03,0.59,0.03l0.43,0.1c0.49,0.11,0.72,0.26,0.87,0.31c0.05,0.05,0.13,0.18,0.15,0.3
			c0.1,0.23,0.21,0.67,0.23,1.25c0,0.33,0.04,0.62,0.04,1l0.05,10.51l-20.78,0.12l0.03-9.32c0-0.44,0-0.87,0.02-1.31l0.05-1.05
			c0.02-0.9,0.23-1.33,0.3-1.51c0.08-0.16,0.28-0.23,0.62-0.31l0.69-0.13c0.56-0.05,1.12-0.05,1.33-0.26
			c0.46-0.26,0.82-0.94,0.82-1.41c0-0.62-0.3-1.17-1-1.54c-0.59-0.31-1.46-0.26-2.69-0.21l-3.79,0.15l-4.1-0.15
			c-1.28-0.05-2.38-0.21-3.28,0.23c-0.56,0.29-0.9,0.9-0.9,1.59c0.02,0.54,0.33,1.03,0.74,1.23c0.21,0.18,0.77,0.36,1.03,0.36
			c0.13,0,0.3,0,0.53,0c0.18,0,0.39,0.03,0.64,0.03c0.13,0,0.25,0.1,0.38,0.1c0.49,0.11,0.72,0.26,0.85,0.31
			c0.05,0.05,0.15,0.18,0.2,0.3c0.09,0.23,0.16,0.67,0.21,1.25l0.11,7.3v18.49c0,1.49-0.05,2.82-0.11,4c0,1.08-0.09,1.97-0.15,2.74
			c-0.05,0.43-0.15,0.87-0.25,1.2c-0.05,0.36-0.16,0.52-0.29,0.57c-0.23,0.05-0.46,0.12-0.69,0.21c-0.97,0.1-1.63,0.23-1.82,0.41
			c-0.3,0.25-0.59,0.87-0.59,1.28c0,0.69,0.38,1.25,0.97,1.51c0.9,0.46,1.63,0.28,2.77,0.23l3.74-0.12l4.35,0.12
			c0.77,0,1.54,0,2.28,0c0.33,0,0.84,0,1.29-0.28c0.56-0.28,0.94-0.82,0.94-1.46c0-0.41-0.3-1.03-0.59-1.28
			c-0.28-0.23-0.8-0.39-1.74-0.41l-1.72-0.21c-0.26-0.05-0.41-0.05-0.52-0.16c-0.1-0.1-0.21-0.33-0.21-0.41
			c-0.1-0.33-0.18-0.77-0.25-1.18c-0.08-0.79-0.11-1.69-0.16-2.77c-0.05-1.18-0.05-2.51-0.08-4v-9.42h20.78v9.42
			c0,1.49,0,2.82-0.08,4c-0.02,1.08-0.08,1.97-0.18,2.74c-0.05,0.43-0.13,0.92-0.21,1.2c-0.11,0.36-0.21,0.52-0.31,0.62
			c-0.23,0-0.49,0.08-0.69,0.16c-0.94,0.1-1.59,0.18-1.87,0.48c-0.25,0.18-0.51,0.8-0.51,1.21c0,0.69,0.33,1.25,0.97,1.51
			c0.87,0.46,1.64,0.28,2.71,0.23l3.77-0.12l4.33,0.12c0.77,0,1.54,0,2.3,0c0.33,0,0.87,0,1.28-0.28c0.59-0.28,0.9-0.82,0.9-1.46
			c0-0.41-0.23-1.03-0.52-1.21C694.28,371.94,693.77,371.79,692.79,371.77L692.79,371.77z"/>
		<path class="st0" d="M821.23,348.69c-0.41,0.92-0.95,1.69-1.66,2.38c-0.72,0.66-1.56,1.12-2.54,1.54
			c-0.97,0.36-2.04,0.62-3.38,0.62c-0.59,0-1.03,0.05-1.28,0.1c-0.43,0.16-0.77,0.36-1,0.72l-0.02-17.81
			c0.1-0.02,0.18-0.02,0.3-0.02c0.36-0.05,0.71-0.05,1.18-0.05l0.41-0.05l0.77,0.05c0.46,0,1,0.05,1.59,0.21
			c0.57,0.11,1.15,0.36,1.76,0.67c0.59,0.3,1.23,0.74,1.82,1.33c0.62,0.72,1.1,1.36,1.49,2c0.33,0.67,0.61,1.39,0.77,2.03
			c0.21,0.66,0.28,1.25,0.3,1.82c0.05,0.62,0.11,1.16,0.11,1.54C821.84,346.87,821.64,347.74,821.23,348.69L821.23,348.69z
			 M828.19,339.57c-0.28-0.97-0.69-1.79-1.15-2.54c-0.49-0.71-0.95-1.33-1.41-1.74c-0.23-0.23-0.62-0.59-1.13-0.95
			c-0.56-0.39-1.25-0.79-2.1-1.15c-0.84-0.38-1.92-0.71-3.21-0.97c-1.25-0.21-2.79-0.41-4.53-0.41c-0.64,0-1.28,0-1.95,0.05
			l-3.69,0.15c-0.49,0-0.87,0-1.15,0c-0.1,0-0.33,0-0.74,0l-3.41-0.15c-1.18-0.05-2.23-0.21-3.25,0.23c-0.56,0.34-0.9,0.9-0.9,1.59
			c0.05,0.54,0.33,1.03,0.74,1.23c0.23,0.18,0.77,0.36,1.03,0.36c0.15,0,0.3,0,0.56,0c0.18,0,0.41,0.03,0.62,0.03
			c0.15,0,0.25,0.1,0.41,0.1c0.51,0.11,0.74,0.26,0.84,0.31c0.02,0.05,0.13,0.18,0.21,0.3c0.08,0.23,0.15,0.67,0.18,1.25l0.11,7.3
			v18.49c0,1.49-0.02,2.82-0.11,4c0,1.08-0.05,1.97-0.15,2.74c-0.05,0.43-0.15,0.92-0.21,1.2c-0.1,0.36-0.21,0.52-0.33,0.62
			c-0.23,0-0.46,0.08-0.69,0.16c-0.92,0.1-1.61,0.23-1.84,0.48c-0.26,0.18-0.57,0.8-0.57,1.21c0,0.69,0.39,1.25,0.98,1.51
			c0.92,0.46,1.66,0.28,2.77,0.23l3.66-0.12l4.32,0.12c0.77,0,1.54,0,2.29,0c0.36,0,0.89,0,1.25-0.23c0.62-0.33,0.97-0.87,0.97-1.51
			c0-0.41-0.26-1.03-0.56-1.21c-0.31-0.3-0.77-0.46-1.75-0.48l-1.74-0.21c-0.33-0.05-0.46-0.05-0.51-0.16
			c-0.11-0.1-0.15-0.33-0.21-0.43c-0.11-0.3-0.18-0.74-0.23-1.18c-0.08-0.77-0.13-1.66-0.18-2.74c0-1.18-0.05-2.51-0.08-4v-7.07
			c0.15,0.25,0.38,0.38,0.62,0.49c0.28,0.23,0.59,0.28,0.79,0.28c0.18,0.05,0.36,0.08,0.74,0.08h0.59c2.1,0,4.04-0.38,5.79-1.05
			c1.79-0.64,3.33-1.64,4.66-2.92c1.31-1.23,2.33-2.74,3.05-4.49c0.74-1.71,1.1-3.66,1.1-5.74
			C828.68,341.51,828.55,340.54,828.19,339.57L828.19,339.57z"/>
		<path class="st0" d="M761.03,360.62c-0.46,1.82-1.1,3.36-1.85,4.54c-0.77,1.21-1.63,2.23-2.56,3.05
			c-0.97,0.77-1.92,1.41-2.92,1.82c-1.03,0.49-2,0.77-2.97,0.95c-0.85,0.23-1.67,0.28-2.51,0.28l0,0c-2.2,0-4.3-0.46-6.22-1.32
			c-1.89-0.9-3.59-2.19-5.02-3.82c-1.44-1.64-2.58-3.74-3.4-6.07c-0.8-2.38-1.23-5.07-1.23-8.07c0-2.77,0.39-5.2,1.1-7.3
			c0.71-1.97,1.72-3.69,2.99-5.02c1.28-1.38,2.77-2.33,4.51-3.02c1.74-0.67,3.66-1.03,5.76-1.03c1.57,0,3.05,0.21,4.54,0.72
			c1.44,0.49,2.84,1.28,4.1,2.23c1.28,1.03,2.38,2.26,3.28,3.64c0.97,1.56,1.74,3.28,2.3,5.25c0.52,2,0.82,4.25,0.82,6.66
			C761.75,356.6,761.5,358.83,761.03,360.62L761.03,360.62z M765.39,339.29c-1.38-1.79-2.99-3.3-4.89-4.54
			c-1.85-1.2-3.92-2.12-6.17-2.68c-2.28-0.67-4.72-0.97-7.22-0.97c-2.56,0-4.97,0.33-7.15,1c-2.12,0.69-4.07,1.59-5.71,2.77
			c-1.67,1.14-3.13,2.46-4.36,3.97c-1.22,1.48-2.2,3.1-3.02,4.71c-0.8,1.75-1.39,3.43-1.75,5.04c-0.38,1.67-0.59,3.28-0.59,4.9
			c0,1.69,0.21,3.49,0.56,5.2c0.38,1.76,0.95,3.46,1.72,5.2c0.77,1.62,1.74,3.21,2.97,4.66c1.15,1.46,2.61,2.77,4.28,3.84
			c1.66,1.18,3.56,2,5.66,2.67c2.07,0.62,4.46,0.92,7.02,0.92c0.05,0,0.05,0,0.05,0c2.74,0,5.28-0.38,7.63-1.2
			c2.33-0.77,4.46-1.92,6.33-3.36c1.87-1.41,3.46-3.12,4.79-5.06c1.31-1.93,2.31-4.15,3.02-6.46c0.67-2.23,1.03-4.71,1.05-7.27
			c-0.02-2.64-0.38-5.1-1.1-7.32C767.77,343.05,766.72,341.03,765.39,339.29L765.39,339.29z"/>
	</g>
</g>
</svg>
